<?xml version="1.0" encoding="UTF-8" standalone="no"?>
<!-- Svg Vector Icons : http://www.onlinewebfonts.com/icon -->

<svg
   version="1.1"
   x="0px"
   y="0px"
   viewBox="0 0 1000 1000"
   enable-background="new 0 0 1000 1000"
   xml:space="preserve"
   id="svg48"
   sodipodi:docname="4square.svg"
   inkscape:version="1.2.2 (b0a8486541, 2022-12-01)"
   xmlns:inkscape="http://www.inkscape.org/namespaces/inkscape"
   xmlns:sodipodi="http://sodipodi.sourceforge.net/DTD/sodipodi-0.dtd"
   xmlns="http://www.w3.org/2000/svg"
   xmlns:svg="http://www.w3.org/2000/svg"><defs
   id="defs52" />
    <sodipodi:namedview
   id="namedview50"
   pagecolor="#ffffff"
   bordercolor="#000000"
   borderopacity="0.25"
   inkscape:showpageshadow="2"
   inkscape:pageopacity="0.0"
   inkscape:pagecheckerboard="0"
   inkscape:deskcolor="#d1d1d1"
   showgrid="false"
   inkscape:zoom="0.788"
   inkscape:cx="337.56345"
   inkscape:cy="501.90355"
   inkscape:window-width="1920"
   inkscape:window-height="1044"
   inkscape:window-x="0"
   inkscape:window-y="0"
   inkscape:window-maximized="1"
   inkscape:current-layer="svg48" />
    <metadata
   id="metadata2"> Svg Vector Icons : http://www.onlinewebfonts.com/icon </metadata>
    <g
   id="g46"
   style="fill:#00000b;fill-opacity:1"><g
   id="g14"
   style="fill:#00000b;fill-opacity:1"><g
     id="g12"
     style="fill:#00000b;fill-opacity:1"><path
       d="M384.7,47.4H84.2c-41,0-74.2,33.2-74.2,74.2v263.1c0,41,33.2,74.2,74.2,74.2h300.5c41,0,74.2-33.2,74.2-74.2V121.5C458.9,80.6,425.7,47.4,384.7,47.4z"
       id="path4"
       style="fill:#00000b;fill-opacity:1" /><path
       d="M915.8,47.4H615.3c-41,0-74.3,33.2-74.3,74.2v263.1c0,41,33.2,74.2,74.3,74.2h300.5c41,0,74.2-33.2,74.2-74.2V121.5C990,80.6,956.8,47.4,915.8,47.4z"
       id="path6"
       style="fill:#00000b;fill-opacity:1" /><path
       d="M384.7,541.1H84.2c-41,0-74.2,33.2-74.2,74.2v263.1c0,40.9,33.2,74.2,74.2,74.2h300.5c41,0,74.2-33.3,74.2-74.2V615.3C458.9,574.3,425.6,541.1,384.7,541.1z"
       id="path8"
       style="fill:#00000b;fill-opacity:1" /><path
       d="M915.8,541.1H615.3c-41,0-74.3,33.2-74.3,74.2v263.1c0,41,33.2,74.2,74.3,74.2h300.5c41,0,74.2-33.2,74.2-74.2V615.3C990,574.3,956.8,541.1,915.8,541.1z"
       id="path10"
       style="fill:#00000b;fill-opacity:1" /></g></g>
        <g
   id="g16"
   style="fill:#00000b;fill-opacity:1" />
        <g
   id="g18"
   style="fill:#00000b;fill-opacity:1" />
        <g
   id="g20"
   style="fill:#00000b;fill-opacity:1" />
        <g
   id="g22"
   style="fill:#00000b;fill-opacity:1" />
        <g
   id="g24"
   style="fill:#00000b;fill-opacity:1" />
        <g
   id="g26"
   style="fill:#00000b;fill-opacity:1" />
        <g
   id="g28"
   style="fill:#00000b;fill-opacity:1" />
        <g
   id="g30"
   style="fill:#00000b;fill-opacity:1" />
        <g
   id="g32"
   style="fill:#00000b;fill-opacity:1" />
        <g
   id="g34"
   style="fill:#00000b;fill-opacity:1" />
        <g
   id="g36"
   style="fill:#00000b;fill-opacity:1" />
        <g
   id="g38"
   style="fill:#00000b;fill-opacity:1" />
        <g
   id="g40"
   style="fill:#00000b;fill-opacity:1" />
        <g
   id="g42"
   style="fill:#00000b;fill-opacity:1" />
        <g
   id="g44"
   style="fill:#00000b;fill-opacity:1" /></g>
</svg>
