<?xml version="1.0" encoding="UTF-8" standalone="no"?>
<!-- Created with Inkscape (http://www.inkscape.org/) -->

<svg
   width="210mm"
   height="297mm"
   viewBox="0 0 210 297"
   version="1.1"
   id="svg5"
   inkscape:export-filename="bg1.svg"
   inkscape:export-xdpi="96"
   inkscape:export-ydpi="96"
   inkscape:version="1.2.2 (b0a8486541, 2022-12-01)"
   sodipodi:docname="bg1.svg"
   xmlns:inkscape="http://www.inkscape.org/namespaces/inkscape"
   xmlns:sodipodi="http://sodipodi.sourceforge.net/DTD/sodipodi-0.dtd"
   xmlns="http://www.w3.org/2000/svg"
   xmlns:svg="http://www.w3.org/2000/svg">
  <sodipodi:namedview
     id="namedview7"
     pagecolor="#505050"
     bordercolor="#eeeeee"
     borderopacity="1"
     inkscape:showpageshadow="0"
     inkscape:pageopacity="0"
     inkscape:pagecheckerboard="0"
     inkscape:deskcolor="#505050"
     inkscape:document-units="mm"
     showgrid="false"
     inkscape:zoom="0.53481247"
     inkscape:cx="627.3227"
     inkscape:cy="459.03941"
     inkscape:window-width="1920"
     inkscape:window-height="1044"
     inkscape:window-x="0"
     inkscape:window-y="0"
     inkscape:window-maximized="1"
     inkscape:current-layer="layer1" />
  <defs
     id="defs2" />
  <g
     inkscape:label="Layer 1"
     inkscape:groupmode="layer"
     id="layer1">
    <path
       id="path1123-6"
       style="fill:#4d4d4d;stroke-width:0.4;fill-opacity:0.16373751"
       d="M 105.46281 95.999825 L 70.462882 148.49998 L 105.46281 201.00013 L 140.46274 148.49998 L 105.46281 95.999825 z M 105.2313 134.35769 L 119.37308 148.49998 L 105.2313 162.64227 L 91.089014 148.49998 L 105.2313 134.35769 z " />
    <path
       id="path1123-9-7"
       style="fill:#4d4d4d;stroke-width:0.4;fill-opacity:0.16373751"
       d="M 35.462755,43.500361 0.46231463,96 35.462755,148.50015 70.462685,96 Z m 0,12.781649 L 61.941245,96 35.462755,135.71798 8.9837546,96 Z" />
    <path
       id="path1123-9-7-0"
       style="fill:#4d4d4d;stroke-width:0.4;fill-opacity:0.16373751"
       d="M 175.00007,43.500361 139.99963,96 175.00007,148.50015 210,96 Z m 0,12.781649 L 201.47856,96 175.00007,135.71798 148.52107,96 Z" />
    <path
       id="path1123-9-7-0-9"
       style="fill:#4d4d4d;stroke-width:0.4;fill-opacity:0.16373751"
       d="M 175,148.50021 139.99956,200.99985 175,253.5 209.99993,200.99985 Z m 0,12.78165 26.47849,39.71799 L 175,240.71783 148.521,200.99985 Z" />
    <path
       id="path1123-9-7-0-9-3"
       style="fill:#4d4d4d;stroke-width:0.4;fill-opacity:0.16373751"
       d="M 35.462755,148.65881 0.46231463,201.15845 35.462755,253.6586 70.462685,201.15845 Z m 0,12.78165 26.47849,39.71799 -26.47849,39.71798 -26.4790004,-39.71798 z" />
  </g>
</svg>
