<?xml version="1.0" encoding="utf-8"?>
<!-- Svg Vector Icons : http://www.onlinewebfonts.com/icon -->
<!DOCTYPE svg PUBLIC "-//W3C//DTD SVG 1.1//EN" "http://www.w3.org/Graphics/SVG/1.1/DTD/svg11.dtd">
<svg version="1.1" xmlns="http://www.w3.org/2000/svg" x="0px" y="0px"
     viewBox="0 0 1000 1000" enable-background="new 0 0 1000 1000" xml:space="preserve">
<metadata> Svg Vector Icons : http://www.onlinewebfonts.com/icon </metadata>
    <g><path d="M907.6,363.9H699.1V210.2c0-54.3-21.9-103.8-57.1-140.3l-1.3-1.3C604.5,32.3,554.8,10,499.7,10C445.3,10,395,32.3,359.1,68.5c-36,36.2-58.2,86.8-58.2,141.6v153.7h-208c0,0-81.7,0-67.7,80.5l80.9,465.2c0,0,14,80.5,95.7,80.5h598.9c0,0,81.7,0,95.4-80.5l79.4-465.1C975.5,444.4,989.3,363.9,907.6,363.9z M345.3,210.2c0-42.8,17.4-81.7,45.5-109.7c28-28.2,66.6-45.8,108.9-45.8c42.8,0,81.4,17.6,109.2,45.8l1.3,1.1c27.5,28.2,43.9,66.6,43.9,108.6v153.7H345.3V210.2z M324.3,603.5c-42.2,0-76.3-34.1-76.3-76.3c0-42.2,34.1-76.3,76.3-76.3c42.2,0,76.3,34.1,76.3,76.3C400.6,569.4,366.5,603.5,324.3,603.5z M675.7,603.5c-42.2,0-76.3-34.1-76.3-76.3c0-42.2,34.1-76.3,76.3-76.3s76.3,34.1,76.3,76.3C752,569.4,717.8,603.5,675.7,603.5z"/></g>
</svg>