<?xml version="1.0" standalone="no"?>
<!DOCTYPE svg PUBLIC "-//W3C//DTD SVG 20010904//EN"
 "http://www.w3.org/TR/2001/REC-SVG-20010904/DTD/svg10.dtd">
<svg version="1.0" xmlns="http://www.w3.org/2000/svg"
 width="512.000000pt" height="512.000000pt" viewBox="0 0 512.000000 512.000000"
 preserveAspectRatio="xMidYMid meet">

<g transform="translate(0.000000,512.000000) scale(0.100000,-0.100000)"
fill="#000000" stroke="none">
<path d="M447 4854 c-4 -4 -7 -839 -7 -1856 l0 -1848 620 0 620 0 0 85 0 85
-530 0 -530 0 0 1680 0 1680 849 0 849 0 31 -26 31 -26 0 -239 0 -239 90 0 90
0 0 152 0 153 153 -153 152 -152 120 0 120 0 -330 330 c-227 227 -344 337
-375 353 l-45 22 -950 3 c-523 1 -954 0 -958 -4z"/>
<path d="M970 4060 l0 -90 355 0 355 0 0 90 0 90 -355 0 -355 0 0 -90z"/>
<path d="M1852 2118 l3 -1853 1410 0 1410 0 0 1405 0 1405 -22 40 c-12 22
-196 214 -410 427 -290 290 -399 392 -433 407 -44 20 -64 21 -1003 21 l-957 0
2 -1852z m1915 1649 l28 -27 3 -325 3 -325 319 0 318 0 31 -26 31 -26 0 -1299
0 -1299 -1235 0 -1235 0 0 1680 0 1680 855 -2 855 -3 27 -28z m401 -396 l102
-101 -150 0 -150 0 0 146 0 147 48 -45 c26 -25 93 -91 150 -147z"/>
<path d="M2387 3263 c-4 -3 -7 -44 -7 -90 l0 -83 620 0 620 0 0 90 0 90 -613
0 c-338 0 -617 -3 -620 -7z"/>
<path d="M2387 2733 c-4 -3 -7 -44 -7 -90 l0 -83 885 0 885 0 0 90 0 90 -878
0 c-483 0 -882 -3 -885 -7z"/>
<path d="M2387 2203 c-4 -3 -7 -44 -7 -90 l0 -83 885 0 885 0 0 90 0 90 -878
0 c-483 0 -882 -3 -885 -7z"/>
<path d="M2387 1673 c-4 -3 -7 -44 -7 -90 l0 -83 885 0 885 0 0 90 0 90 -878
0 c-483 0 -882 -3 -885 -7z"/>
<path d="M2387 1143 c-4 -3 -7 -44 -7 -90 l0 -83 885 0 885 0 0 90 0 90 -878
0 c-483 0 -882 -3 -885 -7z"/>
<path d="M970 3530 l0 -90 355 0 355 0 0 90 0 90 -355 0 -355 0 0 -90z"/>
<path d="M970 3000 l0 -90 353 2 352 3 3 88 3 87 -356 0 -355 0 0 -90z"/>
<path d="M970 2470 l0 -90 353 2 352 3 3 88 3 87 -356 0 -355 0 0 -90z"/>
<path d="M970 1940 l0 -90 353 2 352 3 3 88 3 87 -356 0 -355 0 0 -90z"/>
</g>
</svg>
