<?xml version="1.0" encoding="utf-8"?>
<!-- Svg Vector Icons : http://www.onlinewebfonts.com/icon -->
<!DOCTYPE svg PUBLIC "-//W3C//DTD SVG 1.1//EN" "http://www.w3.org/Graphics/SVG/1.1/DTD/svg11.dtd">
<svg version="1.1" xmlns="http://www.w3.org/2000/svg" x="0px" y="0px"
     viewBox="0 0 1000 1000" enable-background="new 0 0 1000 1000" xml:space="preserve">
<metadata> Svg Vector Icons : http://www.onlinewebfonts.com/icon </metadata>
    <g><path d="M921,211.9c1.3-1.3,2.4-2.7,3.5-4.2c15.1-17.2,24.7-38.1,28.1-60.5v-36.2C943.9,53.9,894.5,10,834.9,10H166.4C100.8,10,47.3,63.5,47.3,129.2c0,28.4,10,55.4,28.1,76.9c1.3,2.1,2.9,4.2,4.7,6l264.2,264.5v286.5c0,10.1,4.5,19.2,11.6,25.3c0.4,0.4,0.8,0.8,1.3,1.1l237.4,192.6c6.1,5.3,13.6,7.8,21.1,7.8c9.2,0,18.4-3.9,24.9-11.6c6.2-7.3,8.6-16.6,7.4-25.5V485.2L921,211.9L921,211.9z M131.7,169c-0.9-1.3-1.9-2.5-3-3.7c-9.3-9.8-14.5-22.6-14.5-36.1c0-28.8,23.4-52.2,52.2-52.2h668.5c28.8,0,52.2,23.5,52.2,52.2c0,13.4-5.1,26.2-14.3,36c-0.7,0.7-1.3,1.4-1.8,2.2L591,447.6c-6.3,6.3-9.8,14.8-9.8,23.7V885L411.3,749.7v-287c0-8.8-3.5-17.4-9.8-23.7L131.7,169L131.7,169z"/></g>
</svg>