<?xml version="1.0" encoding="utf-8"?>
<!-- Svg Vector Icons : http://www.onlinewebfonts.com/icon -->
<!DOCTYPE svg PUBLIC "-//W3C//DTD SVG 1.1//EN" "http://www.w3.org/Graphics/SVG/1.1/DTD/svg11.dtd">
<svg version="1.1" xmlns="http://www.w3.org/2000/svg" x="0px" y="0px"
     viewBox="0 0 1000 1000" enable-background="new 0 0 1000 1000" xml:space="preserve">
<metadata> Svg Vector Icons : http://www.onlinewebfonts.com/icon </metadata>
    <g><path d="M873.3,754.8H361.9c-64.4,0-116.7-52.2-116.7-116.7V126.7C245.2,62.2,297.4,10,361.9,10h511.5C937.8,10,990,62.2,990,126.7v511.5C990,702.6,937.8,754.8,873.3,754.8z M911.6,158.4c0-38.7-31.3-70-70-70h-448c-38.7,0-70,31.3-70,70v448c0,38.7,31.3,70,70,70h448c38.7,0,70-31.3,70-70V158.4z M586.3,527.9c-4.7,4.7-10.7,7-16.8,7.8c-11.2,6.2-25.4,5-34.8-4.5L409.9,406.6c-11.5-11.5-11.5-30.1,0-41.6l13.9-13.9c11.5-11.5,30.1-11.5,41.6,0l93.4,93.4l207.7-207.7c11.5-11.5,30.1-11.5,41.6,0l13.9,13.9c11.5,11.5,11.5,30.1,0,41.6L586.3,527.9z M794,794c21.6,0,39.2,17.6,39.2,39.2c0,21.6-17.5,39.2-39.2,39.2H225.6c-54.1,0-98-43.9-98-98V206c0-21.7,17.5-39.2,39.2-39.2c21.6,0,39.2,17.5,39.2,39.2v529.2c0,32.5,26.3,58.8,58.8,58.8H794z M637.2,911.6c21.6,0,39.2,17.6,39.2,39.2c0,21.6-17.6,39.2-39.2,39.2H108c-54.1,0-98-43.9-98-98V362.8c0-21.6,17.6-39.2,39.2-39.2c21.7,0,39.2,17.5,39.2,39.2v490c0,32.5,26.3,58.8,58.8,58.8H637.2z"/></g>
</svg>