<?xml version="1.0" encoding="UTF-8" standalone="no"?>
<!-- Svg Vector Icons : http://www.onlinewebfonts.com/icon -->

<svg
   version="1.1"
   x="0px"
   y="0px"
   viewBox="0 0 1000 1000"
   enable-background="new 0 0 1000 1000"
   xml:space="preserve"
   id="svg12"
   sodipodi:docname="trash.svg"
   inkscape:version="1.2.2 (b0a8486541, 2022-12-01)"
   xmlns:inkscape="http://www.inkscape.org/namespaces/inkscape"
   xmlns:sodipodi="http://sodipodi.sourceforge.net/DTD/sodipodi-0.dtd"
   xmlns="http://www.w3.org/2000/svg"
   xmlns:svg="http://www.w3.org/2000/svg"><defs
   id="defs16" />
    <sodipodi:namedview
   id="namedview14"
   pagecolor="#ffffff"
   bordercolor="#000000"
   borderopacity="0.25"
   inkscape:showpageshadow="2"
   inkscape:pageopacity="0.0"
   inkscape:pagecheckerboard="0"
   inkscape:deskcolor="#d1d1d1"
   showgrid="false"
   inkscape:zoom="0.220947"
   inkscape:cx="-1298.954"
   inkscape:cy="581.58743"
   inkscape:window-width="1920"
   inkscape:window-height="1044"
   inkscape:window-x="0"
   inkscape:window-y="0"
   inkscape:window-maximized="1"
   inkscape:current-layer="svg12" />
    <metadata
   id="metadata2"> Svg Vector Icons : http://www.onlinewebfonts.com/icon </metadata>
    <g
   id="g10"
   style="fill:#000000;fill-opacity:1"><g
     transform="translate(0.000000,128.000000) scale(0.100000,-0.100000)"
     id="g8"
     style="fill:#000000;fill-opacity:1"><path
       d="M3522.4,1042.2c-84.2-91.9-130.2-275.6-130.2-535.9V108.1H2236.1c-1477.6,0-1600.1-53.6-1600.1-704.4v-367.5H5000h4364.1v367.5c0,650.8-122.5,704.4-1600.2,704.4H6607.8v405.8c0,650.8-30.7,666.1-1623.1,666.1C3782.7,1180,3629.5,1164.7,3522.4,1042.2z"
       id="path4"
       style="fill:#000000;fill-opacity:1" /><path
       d="M1210.2-2012.7c23-245,130.2-1699.7,229.7-3238.6C1608.3-7663,1646.6-8068.7,1769-8237.2C2052.3-8612.4,2105.9-8620,5000-8620s2947.7,7.6,3230.9,382.8c122.5,168.5,160.8,574.2,329.2,2985.9c99.5,1538.9,206.7,2993.6,229.7,3238.6l45.9,436.4H5000H1164.2L1210.2-2012.7z M3231.4-2847.2c153.1-191.4,160.8-298.6,160.8-2166.7c0-1079.5-23-2036.5-45.9-2136.1c-76.6-268-451.7-436.4-727.3-321.6c-352.2,145.5-390.5,421.1-359.8,2587.8c23,1937.1,23,1944.7,206.7,2090.2C2726.1-2586.9,3040-2609.8,3231.4-2847.2z M5367.5-2801.2c168.5-153.1,168.5-199.1,168.5-2251c0-1921.7-15.3-2113.1-137.8-2273.8c-199.1-237.4-597.2-237.4-796.3,0c-122.5,160.7-137.8,352.2-137.8,2273.8c0,2051.9,0,2097.8,168.5,2251c91.8,84.2,260.3,153.1,367.5,153.1C5107.2-2648.1,5275.6-2717,5367.5-2801.2z M7534.2-2793.6C7718-2939,7718-2946.7,7740.9-4883.8c30.7-2166.7-7.6-2442.3-359.9-2587.8c-275.6-114.8-650.8,53.6-727.3,321.6c-22.9,99.5-45.9,1056.6-45.9,2136.1c0,1868.1,7.6,1975.3,160.7,2166.7C6960-2609.8,7273.9-2586.9,7534.2-2793.6z"
       id="path6"
       style="fill:#000000;fill-opacity:1" /></g></g>
</svg>
